<?xml version="1.0" encoding="UTF-8" standalone="no"?>
<!-- Created with Inkscape (http://www.inkscape.org/) -->

<svg
   width="774.76044mm"
   height="92.069313mm"
   viewBox="0 0 774.76044 92.069313"
   version="1.1"
   id="svg1"
   inkscape:export-filename="svg\AMdev B.svg"
   inkscape:export-xdpi="96"
   inkscape:export-ydpi="96"
   sodipodi:docname="bitma.svg"
   inkscape:version="1.4.2 (f4327f4, 2025-05-13)"
   xmlns:inkscape="http://www.inkscape.org/namespaces/inkscape"
   xmlns:sodipodi="http://sodipodi.sourceforge.net/DTD/sodipodi-0.dtd"
   xmlns="http://www.w3.org/2000/svg"
   xmlns:svg="http://www.w3.org/2000/svg">
  <sodipodi:namedview
     id="namedview1"
     pagecolor="#ffffff"
     bordercolor="#999999"
     borderopacity="1"
     inkscape:showpageshadow="2"
     inkscape:pageopacity="0"
     inkscape:pagecheckerboard="0"
     inkscape:deskcolor="#d1d1d1"
     inkscape:document-units="mm"
     showgrid="false"
     inkscape:zoom="0.19446875"
     inkscape:cx="1889.7638"
     inkscape:cy="3010.7666"
     inkscape:window-width="1920"
     inkscape:window-height="974"
     inkscape:window-x="-11"
     inkscape:window-y="-11"
     inkscape:window-maximized="1"
     inkscape:current-layer="layer1"
     showguides="false">
    <inkscape:page
       x="0"
       y="0"
       width="774.76044"
       height="92.069313"
       id="page1"
       margin="0"
       bleed="0" />
  </sodipodi:namedview>
  <defs
     id="defs1">
    <linearGradient
       id="swatch19"
       inkscape:swatch="solid">
      <stop
         style="stop-color:#ffffff;stop-opacity:1;"
         offset="0"
         id="stop19" />
    </linearGradient>
  </defs>
  <g
     inkscape:label="Layer 1"
     inkscape:groupmode="layer"
     id="layer1"
     transform="translate(-125.43608,-788.22799)">
    <path
       id="path42"
       style="font-weight:bold;font-size:84.6667px;line-height:30.8;font-family:Quicksand;-inkscape-font-specification:'Quicksand Bold';display:inline;mix-blend-mode:darken;fill:#3282b8;fill-opacity:1;stroke:#ffffff;stroke-width:25.1354;stroke-linecap:butt;stroke-linejoin:round;stroke-dasharray:none;stroke-opacity:1;paint-order:stroke fill markers"
       d="m 853.84691,818.87673 c -0.31351,0 -0.63053,0.0651 -0.95085,0.19431 -1.5336,0.2418 -2.69799,1.29877 -3.49384,3.17138 l -11.58689,26.65005 -11.69644,-26.7348 c -0.45156,-1.07245 -1.12933,-1.8624 -2.03244,-2.3704 -0.90311,-0.56445 -1.89067,-0.84697 -2.96312,-0.84697 -1.524,0 -2.7375,0.50793 -3.64061,1.52393 -0.90311,0.95956 -1.35496,1.94765 -1.35496,2.96365 0,0.62089 0.0566,1.15714 0.1695,1.60869 0.16933,0.45156 0.31034,0.81847 0.42323,1.1007 l 15.7484,34.88263 c 0.508,1.18533 1.24135,2.06019 2.2009,2.62464 1.016,0.56447 2.06017,0.76206 3.13262,0.59273 1.97556,-0.11289 3.41497,-1.18537 4.31808,-3.21737 l 14.01982,-30.88856 17.73793,10.60297 -22.48648,13.02557 c -0.62089,0.39511 -1.10103,0.84644 -1.4397,1.35444 -0.28223,0.508 -0.42323,1.07253 -0.42323,1.69343 0,1.18533 0.47962,2.34222 1.43918,3.47111 1.016,1.07244 2.08849,1.60869 3.21738,1.60869 0.62089,-1e-5 1.24205,-0.14101 1.86294,-0.42323 0.62089,-0.28222 1.29813,-0.62085 2.03191,-1.01596 l 27.51667,-15.83263 c 0.67733,-0.39511 1.18527,-0.93136 1.52394,-1.60869 0.33867,-0.73378 0.50798,-1.49594 0.50798,-2.28616 0,-0.79023 -0.16931,-1.52409 -0.50798,-2.20142 -0.33867,-0.73377 -0.84661,-1.2978 -1.52394,-1.69292 l -27.51667,-16.17162 c -0.41431,-0.23674 -0.82076,-0.4578 -1.21956,-0.66352 -0.4743,-0.38713 -1.02152,-0.65791 -1.64124,-0.81236 -0.47192,-0.20129 -0.92937,-0.30231 -1.37253,-0.30231 z m -192.22134,37.46025 c -1.18533,0 -2.17342,0.36693 -2.96365,1.10071 -0.73377,0.79022 -1.1007,1.75001 -1.1007,2.87889 0,1.1289 0.36693,2.05985 1.1007,2.79363 0.79023,0.79022 1.77832,1.18546 2.96365,1.18546 h 43.01029 c 1.18533,0 2.14512,-0.36693 2.8789,-1.10071 0.79022,-0.73378 1.18545,-1.66474 1.18545,-2.79363 0,-1.18533 -0.39523,-2.17342 -1.18545,-2.96364 -0.73378,-0.73378 -1.69357,-1.10071 -2.8789,-1.10071 z" />
    <path
       id="path40"
       style="font-weight:bold;font-size:84.6667px;line-height:30.8;font-family:Quicksand;-inkscape-font-specification:'Quicksand Bold';display:inline;mix-blend-mode:darken;fill:#1b262c;fill-opacity:1;stroke:#ffffff;stroke-width:25.1354;stroke-linecap:butt;stroke-linejoin:round;stroke-dasharray:none;stroke-opacity:1;paint-order:stroke fill markers"
       inkscape:label="path40"
       d="m 790.26216,820.73967 c -3.72533,0 -7.25311,0.95927 -10.58333,2.87838 -3.33023,1.91911 -6.03974,4.68523 -8.12819,8.29768 -2.032,3.556 -3.04788,7.87373 -3.04788,12.95373 0,4.34623 0.93148,8.24092 2.79415,11.68404 1.91911,3.44311 4.62811,6.18093 8.12767,8.21294 3.556,1.97555 7.73324,2.96313 12.53102,2.96313 2.82222,0 5.55952,-0.45133 8.21241,-1.35444 2.65289,-0.95956 4.71346,-2.06036 6.18102,-3.30213 1.58044,-1.24178 2.3704,-2.62458 2.3704,-4.14858 0,-1.12889 -0.42302,-2.11697 -1.26969,-2.96364 -0.79022,-0.84667 -1.80661,-1.26969 -3.04839,-1.26969 -0.90311,0 -1.86237,0.25371 -2.87838,0.76171 -0.62089,0.33867 -1.32645,0.7622 -2.11667,1.2702 -0.73378,0.45156 -1.72186,0.84679 -2.96364,1.18546 -1.24177,0.33867 -2.90659,0.50798 -4.99504,0.50798 -2.25778,0 -4.40275,-0.53624 -6.43475,-1.60869 -1.97556,-1.12889 -3.61259,-2.73761 -4.91081,-4.82606 -0.72729,-1.25622 -1.24173,-2.66733 -1.54306,-4.23333 h 27.95901 c 1.35467,0 2.54038,-0.42354 3.55638,-1.27021 1.01598,-0.84667 1.55218,-1.94694 1.60868,-3.30161 0,-3.048 -0.59285,-5.92683 -1.77818,-8.63616 -1.12889,-2.70934 -2.68101,-5.08023 -4.65656,-7.11223 -1.97555,-2.08844 -4.26153,-3.72495 -6.85798,-4.91029 -2.54,-1.18533 -5.24952,-1.77819 -8.12819,-1.77819 z m 0,9.31313 c 1.74978,0 3.38681,0.39522 4.91081,1.18545 1.58045,0.73377 2.87834,1.74965 3.89434,3.04788 1.07245,1.29822 1.66529,2.76594 1.77818,4.40283 v 0.59273 H 778.6732 c 0.13672,-0.69413 0.29439,-1.35587 0.49765,-1.94717 0.62089,-1.80623 1.46744,-3.24564 2.53989,-4.31808 1.07244,-1.07245 2.34255,-1.83461 3.81011,-2.28617 1.46755,-0.45155 3.04798,-0.67747 4.74131,-0.67747 z m -596.12847,10.87582 c -1.58042,0.007 -2.9606,0.60534 -4.14083,1.79575 -1.12401,1.13372 -1.68287,2.51894 -1.67587,4.15582 0.007,1.58044 0.57755,2.96088 1.71152,4.14135 1.19018,1.1238 2.5754,1.68267 4.15582,1.67587 1.63688,-0.007 3.01732,-0.5778 4.14135,-1.71152 1.12381,-1.19018 1.68215,-2.57539 1.67535,-4.15582 -0.007,-1.63688 -0.57727,-3.01732 -1.71101,-4.14135 -1.13396,-1.18051 -2.51945,-1.76717 -4.15633,-1.7601 z" />
    <path
       id="path39"
       style="font-weight:bold;font-size:84.6667px;line-height:30.8;font-family:Quicksand;-inkscape-font-specification:'Quicksand Bold';display:inline;mix-blend-mode:darken;fill:#144272;fill-opacity:1;stroke:#ffffff;stroke-width:25.1354;stroke-linecap:butt;stroke-linejoin:round;stroke-dasharray:none;stroke-opacity:1;paint-order:stroke fill markers"
       d="m 231.79341,800.79567 c -1.46755,0 -2.68105,0.50794 -3.64061,1.52394 -0.95955,0.95955 -1.43919,2.17356 -1.43919,3.64112 v 53.17039 c 0,1.524 0.47964,2.76581 1.43919,3.72536 0.95956,0.95955 2.17306,1.43919 3.64061,1.43919 1.46756,0 2.68105,-0.47964 3.6406,-1.43919 0.95955,-1.016 1.43919,-2.25781 1.43919,-3.72536 v -0.48575 c 0.59391,0.5852 1.27167,1.17076 2.03243,1.75596 1.524,1.12889 3.27374,2.05985 5.24929,2.79363 1.97556,0.73377 4.09223,1.10071 6.35,1.10071 3.83823,0 7.28109,-0.98758 10.32909,-2.96313 3.10445,-2.032 5.55974,-4.79761 7.36596,-8.29717 1.86267,-3.556 2.79414,-7.64832 2.79414,-12.27677 0,-4.62845 -0.93147,-8.69247 -2.79414,-12.19202 -1.80622,-3.49956 -4.28982,-6.23738 -7.45071,-8.21293 -3.10444,-2.03201 -6.63222,-3.04788 -10.58333,-3.04788 -1.97556,0 -3.8663,0.33863 -5.67252,1.01596 -1.74978,0.67733 -3.3019,1.5522 -4.65657,2.62465 -1.21469,0.91101 -2.20277,1.84497 -2.96364,2.80137 v -17.78702 c 0,-1.46756 -0.47964,-2.68157 -1.43919,-3.64112 -0.95955,-1.016 -2.17304,-1.52394 -3.6406,-1.52394 z m 85.17464,0 c -1.46755,0 -2.68104,0.50794 -3.6406,1.52394 -0.95955,0.95955 -1.43919,2.17356 -1.43919,3.64112 v 16.64601 c -0.50246,-0.47356 -1.067,-0.94209 -1.69344,-1.40612 -1.46755,-1.12889 -3.21729,-2.06036 -5.24929,-2.79414 -2.032,-0.73378 -4.26137,-1.10071 -6.68848,-1.10071 -3.78178,0 -7.22515,1.01587 -10.3296,3.04788 -3.10445,1.97555 -5.58804,4.74168 -7.45071,8.29768 -1.80622,3.49956 -2.7094,7.56357 -2.7094,12.19202 0,4.572 0.90318,8.63602 2.7094,12.19202 1.86267,3.49956 4.37457,6.26517 7.53546,8.29717 3.16089,1.97555 6.68866,2.96313 10.58333,2.96313 2.14489,0 4.12054,-0.33863 5.92677,-1.01596 1.86267,-0.73377 3.47139,-1.60865 4.82606,-2.62465 1.00117,-0.75087 1.84807,-1.5017 2.54093,-2.25257 0.0251,1.4162 0.50444,2.61889 1.43816,3.60753 0.95956,0.95956 2.17305,1.43919 3.6406,1.43919 1.46756,0 2.68106,-0.47963 3.64061,-1.43919 0.95955,-1.016 1.4397,-2.25781 1.4397,-3.72536 v -52.32393 c 0,-1.524 -0.48015,-2.7658 -1.4397,-3.72536 -0.95955,-0.95955 -2.17305,-1.4397 -3.64061,-1.4397 z m 72.05142,0 c -1.46756,0 -2.70936,0.50794 -3.72536,1.52394 -0.95955,0.95955 -1.43919,2.17356 -1.43919,3.64112 v 52.32393 c 0,1.46755 0.47964,2.70936 1.43919,3.72536 0.95955,0.95956 2.14527,1.43919 3.55638,1.43919 1.46756,0 2.68105,-0.47963 3.6406,-1.43919 1.016,-1.016 1.52394,-2.25781 1.52394,-3.72536 v -52.32393 c 0,-1.46756 -0.48016,-2.68157 -1.43971,-3.64112 -0.90311,-1.016 -2.0883,-1.52394 -3.55585,-1.52394 z m 154.09343,0 c -1.46755,0 -2.70935,0.50794 -3.72535,1.52394 -0.95956,0.95955 -1.43919,2.17356 -1.43919,3.64112 v 52.32393 c 0,1.46755 0.47963,2.70936 1.43919,3.72536 0.95955,0.95956 2.14526,1.43919 3.55637,1.43919 1.46755,0 2.68105,-0.47963 3.64061,-1.43919 1.016,-1.016 1.52394,-2.25781 1.52394,-3.72536 v -52.32393 c 0,-1.46756 -0.47963,-2.68157 -1.43919,-3.64112 -0.90311,-1.016 -2.08882,-1.52394 -3.55638,-1.52394 z m 71.88244,0 c -1.46755,0 -2.68105,0.50794 -3.64061,1.52394 -0.95955,0.95955 -1.4397,2.17356 -1.4397,3.64112 v 52.32393 c 0,1.46755 0.48015,2.70936 1.4397,3.72536 0.95956,0.95956 2.17306,1.43919 3.64061,1.43919 1.46756,0 2.68105,-0.47963 3.6406,-1.43919 0.95955,-1.016 1.43919,-2.25781 1.43919,-3.72536 v -8.90694 l 4.16616,-3.83388 15.22232,16.12718 c 1.016,1.12889 2.25781,1.69344 3.72536,1.69344 1.12889,0 2.25798,-0.45133 3.38687,-1.35444 1.18533,-0.95955 1.77819,-2.17305 1.77819,-3.64061 0,-1.41111 -0.53624,-2.68121 -1.60869,-3.8101 l -14.79496,-16.11013 12.76304,-11.74553 c 1.35467,-1.18533 2.03192,-2.45492 2.03192,-3.80959 0,-1.016 -0.48016,-2.06069 -1.43971,-3.13314 -0.95955,-1.07245 -2.08812,-1.60869 -3.38635,-1.60869 -1.41111,0 -2.65292,0.53624 -3.72536,1.60869 l -18.11879,17.48575 v -31.28594 c 0,-1.46756 -0.47964,-2.68157 -1.43919,-3.64112 -0.95955,-1.016 -2.17304,-1.52394 -3.6406,-1.52394 z m 138.47888,0.78806 c -1.46756,0 -2.68105,0.50795 -3.6406,1.52394 -0.95955,0.95956 -1.43919,2.17305 -1.43919,3.64061 v 16.64652 c -0.50246,-0.47356 -1.067,-0.94208 -1.69344,-1.40611 -1.46755,-1.12889 -3.21729,-2.06037 -5.24929,-2.79415 -2.032,-0.73378 -4.26137,-1.1007 -6.68848,-1.1007 -3.78178,0 -7.22515,1.01586 -10.3296,3.04787 -3.10445,1.97555 -5.58804,4.74117 -7.45071,8.29717 -1.80622,3.49956 -2.70939,7.56357 -2.70939,12.19202 0,4.572 0.90317,8.63602 2.70939,12.19202 1.86267,3.49956 4.37457,6.26569 7.53546,8.29769 3.16089,1.97555 6.68866,2.96312 10.58333,2.96312 2.14489,0 4.12055,-0.33863 5.92677,-1.01596 1.86267,-0.73377 3.47139,-1.60864 4.82606,-2.62464 1.00117,-0.75087 1.84807,-1.5017 2.54093,-2.25258 0.0251,1.4162 0.50444,2.61838 1.43816,3.60702 0.95955,0.95957 2.17304,1.4397 3.6406,1.4397 1.46755,0 2.68157,-0.48013 3.64113,-1.4397 0.95955,-1.01599 1.43918,-2.25782 1.43918,-3.72536 v -52.32393 c 0,-1.524 -0.47963,-2.7658 -1.43918,-3.72536 -0.95956,-0.95956 -2.17358,-1.43919 -3.64113,-1.43919 z m -559.5028,2.23501 c -0.92604,-0.0185 -1.8088,0.24375 -2.64841,0.78703 -0.90311,0.62089 -1.58088,1.49576 -2.03244,2.62465 l -19.02157,45.68196 -18.51412,-11.0665 22.48648,-13.02557 c 0.62089,-0.39511 1.07221,-0.84644 1.35444,-1.35444 0.33867,-0.56445 0.5085,-1.12898 0.5085,-1.69343 0,-1.18533 -0.50846,-2.31391 -1.52446,-3.38636 -0.95956,-1.12889 -2.00373,-1.69344 -3.13262,-1.69344 -0.56445,0 -1.18509,0.14101 -1.86242,0.42323 -0.62089,0.22578 -1.29814,0.56441 -2.03192,1.01596 l -27.51666,15.83263 c -0.67733,0.39511 -1.18527,0.95965 -1.52394,1.69343 -0.33867,0.67733 -0.5085,1.41119 -0.5085,2.20142 0,0.73377 0.16983,1.46764 0.5085,2.20142 0.33867,0.67733 0.84661,1.24137 1.52394,1.69292 l 27.51666,16.17162 c 0.7405,0.42315 1.43137,0.82118 2.07274,1.19476 0.70484,0.50148 1.64349,0.75241 2.81637,0.75241 0.95955,0 1.83442,-0.28201 2.62465,-0.84646 0.84667,-0.62089 1.46782,-1.46745 1.86293,-2.5399 l 16.95762,-39.8818 17.07803,39.79705 c 0.45155,1.07244 1.0727,1.91901 1.86293,2.5399 0.84667,0.62089 1.77815,0.93121 2.79415,0.93121 1.18533,0 2.25782,-0.45133 3.21737,-1.35444 1.016,-0.90311 1.52394,-2.1166 1.52394,-3.64061 0,-0.62089 -0.14152,-1.29865 -0.42374,-2.03243 L 199.1122,807.23042 c -0.39511,-1.07245 -1.04406,-1.8907 -1.94717,-2.45515 -0.84667,-0.62089 -1.77815,-0.93121 -2.79415,-0.93121 -0.13405,-0.0141 -0.26716,-0.0227 -0.39946,-0.0253 z m 158.72623,13.48703 c -3.72534,0 -7.25311,0.95978 -10.58333,2.87889 -3.33023,1.91911 -6.03974,4.68472 -8.12819,8.29717 -2.032,3.556 -3.04787,7.87373 -3.04787,12.95373 0,4.34623 0.93147,8.24094 2.79414,11.68405 1.91911,3.44311 4.62811,6.18093 8.12767,8.21293 3.556,1.97555 7.73324,2.96313 12.53102,2.96313 2.82222,0 5.55953,-0.45133 8.21242,-1.35444 2.65289,-0.95956 4.71294,-2.06036 6.1805,-3.30213 1.58045,-1.24178 2.37091,-2.62458 2.37091,-4.14858 0,-1.12889 -0.42353,-2.11646 -1.2702,-2.96313 -0.79023,-0.84667 -1.8061,-1.2702 -3.04788,-1.2702 -0.90311,0 -1.86237,0.25422 -2.87837,0.76222 -0.62089,0.33867 -1.32645,0.76169 -2.11667,1.26969 -0.73378,0.45156 -1.72187,0.84679 -2.96365,1.18546 -1.24177,0.33867 -2.90659,0.50798 -4.99504,0.50798 -2.25778,0 -4.40275,-0.53624 -6.43475,-1.60869 -1.97555,-1.12889 -3.61258,-2.73761 -4.91081,-4.82606 -0.72729,-1.25622 -1.24173,-2.66733 -1.54306,-4.23333 h 27.95902 c 1.35467,0 2.53985,-0.42354 3.55585,-1.27021 1.01598,-0.84667 1.55219,-1.94694 1.60869,-3.30161 0,-3.048 -0.59234,-5.92683 -1.77767,-8.63616 -1.12889,-2.70934 -2.68152,-5.08023 -4.65708,-7.11223 -1.97555,-2.08844 -4.26153,-3.72495 -6.85798,-4.91029 -2.54,-1.18533 -5.249,-1.77819 -8.12767,-1.77819 z m 76.96223,0 c -1.86267,0 -3.58461,0.31032 -5.16506,0.93121 -1.58045,0.56444 -3.01986,1.32661 -4.31808,2.28617 -1.29823,0.95955 -2.3985,2.00373 -3.30161,3.13262 -0.30471,0.36185 -0.58724,0.71709 -0.84698,1.06609 v -1.40457 c 0,-1.46755 -0.47963,-2.68104 -1.43918,-3.6406 -0.95956,-1.016 -2.17306,-1.52446 -3.64061,-1.52446 -1.46756,0 -2.68105,0.50846 -3.6406,1.52446 -0.95955,0.95956 -1.43971,2.17305 -1.43971,3.6406 v 34.96737 c 0,1.46755 0.48016,2.70936 1.43971,3.72536 0.95955,0.95956 2.17304,1.43919 3.6406,1.43919 1.46755,0 2.68105,-0.47963 3.64061,-1.43919 0.95955,-1.016 1.43918,-2.25781 1.43918,-3.72536 v -21.67464 c 0,-1.86267 0.36693,-3.52801 1.10071,-4.99556 0.79022,-1.524 1.94763,-2.7375 3.47163,-3.64061 1.524,-0.90311 3.35813,-1.35495 5.50302,-1.35495 2.20133,0 3.89498,0.45184 5.08031,1.35495 1.18533,0.90311 2.0036,2.11661 2.45515,3.64061 0.45156,1.46755 0.67747,3.13289 0.67747,4.99556 v 21.67464 c 0,1.46755 0.47964,2.70936 1.43919,3.72536 0.95956,0.95956 2.17306,1.43919 3.64061,1.43919 1.46755,0 2.68104,-0.47963 3.6406,-1.43919 0.95955,-1.016 1.43971,-2.25781 1.43971,-3.72536 v -21.67464 c 0,-1.86267 0.36641,-3.52801 1.10019,-4.99556 0.79022,-1.524 1.94762,-2.7375 3.47162,-3.64061 1.52401,-0.90311 3.35813,-1.35495 5.50302,-1.35495 2.20133,0 3.89499,0.45184 5.08032,1.35495 1.18533,0.90311 2.00358,2.11661 2.45514,3.64061 0.45155,1.46755 0.67748,3.13289 0.67748,4.99556 v 21.67464 c 0,1.46755 0.47964,2.70936 1.43919,3.72536 0.95956,0.95956 2.17305,1.43919 3.6406,1.43919 1.46756,0 2.68158,-0.47963 3.64113,-1.43919 0.95955,-1.016 1.43918,-2.25781 1.43918,-3.72536 v -21.67464 c 0,-3.556 -0.39523,-6.77346 -1.18545,-9.65213 -0.79022,-2.93511 -2.25795,-5.27769 -4.40284,-7.02747 -2.08845,-1.74978 -5.16437,-2.62465 -9.22837,-2.62465 -2.48355,0 -4.74123,0.53624 -6.77323,1.60869 -1.97556,1.016 -3.6692,2.2861 -5.08031,3.8101 -1.31554,1.36817 -2.31221,2.6625 -2.99,3.88349 -0.78259,-2.37351 -1.98698,-4.3734 -3.61373,-6.00016 -2.14489,-2.20134 -5.47505,-3.30212 -9.99061,-3.30212 z m 72.64363,0 c -3.78178,0 -7.22464,1.01587 -10.32909,3.04788 -3.10445,1.97555 -5.58803,4.74168 -7.4507,8.29768 -1.80623,3.49956 -2.7094,7.56357 -2.7094,12.19202 0,4.572 0.90317,8.63602 2.7094,12.19202 1.86267,3.49956 4.37456,6.26517 7.53545,8.29717 3.16089,1.97555 6.68867,2.96313 10.58334,2.96313 2.14489,0 4.12055,-0.33863 5.92677,-1.01596 1.86267,-0.73377 3.47087,-1.60865 4.82554,-2.62465 1.00116,-0.75087 1.84858,-1.5017 2.54145,-2.25257 0.0251,1.4162 0.50443,2.61889 1.43815,3.60753 0.95955,0.95956 2.17305,1.43919 3.64061,1.43919 1.46755,0 2.68105,-0.47963 3.6406,-1.43919 0.95956,-1.016 1.43919,-2.25781 1.43919,-3.72536 v -35.81435 c 0,-1.524 -0.47963,-2.7658 -1.43919,-3.72535 -0.95955,-0.95956 -2.17305,-1.43919 -3.6406,-1.43919 -1.46756,0 -2.68106,0.50794 -3.64061,1.52394 -0.95956,0.95956 -1.43918,2.17305 -1.43918,3.6406 v 0.13643 c -0.50246,-0.47356 -1.06701,-0.94209 -1.69344,-1.40612 -1.46755,-1.12889 -3.21728,-2.06036 -5.24929,-2.79414 -2.032,-0.73378 -4.26189,-1.10071 -6.689,-1.10071 z m 76.45425,0 c -3.72533,0 -7.25311,0.95978 -10.58334,2.87889 -3.33023,1.91911 -6.03974,4.68472 -8.12818,8.29717 -2.032,3.556 -3.04788,7.87373 -3.04788,12.95373 0,4.34623 0.93148,8.24094 2.79415,11.68405 1.91911,3.44311 4.62862,6.18093 8.12818,8.21293 3.556,1.97555 7.73272,2.96313 12.5305,2.96313 2.82223,0 5.55953,-0.45133 8.21242,-1.35444 2.65289,-0.95956 4.71347,-2.06036 6.18102,-3.30213 1.58045,-1.24178 2.3704,-2.62458 2.3704,-4.14858 0,-1.12889 -0.42302,-2.11646 -1.26969,-2.96313 -0.79023,-0.84667 -1.80662,-1.2702 -3.04839,-1.2702 -0.90311,0 -1.86238,0.25422 -2.87838,0.76222 -0.62089,0.33867 -1.32644,0.76169 -2.11667,1.26969 -0.73378,0.45156 -1.72187,0.84679 -2.96364,1.18546 -1.24178,0.33867 -2.9066,0.50798 -4.99505,0.50798 -2.25778,0 -4.40274,-0.53624 -6.43474,-1.60869 -1.97555,-1.12889 -3.61259,-2.73761 -4.91082,-4.82606 -0.72728,-1.25622 -1.24121,-2.66733 -1.54254,-4.23333 h 27.9585 c 1.35467,0 2.54037,-0.42354 3.55637,-1.27021 1.01597,-0.84667 1.55219,-1.94694 1.60869,-3.30161 0,-3.048 -0.59285,-5.92683 -1.77818,-8.63616 -1.12889,-2.70934 -2.68101,-5.08023 -4.65657,-7.11223 -1.97555,-2.08844 -4.26153,-3.72495 -6.85798,-4.91029 -2.54,-1.18533 -5.24951,-1.77819 -8.12818,-1.77819 z m -329.86152,9.31313 c 2.48355,0 4.62852,0.62115 6.43475,1.86293 1.86267,1.24178 3.30156,2.93491 4.31756,5.0798 1.07244,2.08845 1.60869,4.48764 1.60869,7.19697 0,2.65289 -0.53625,5.07988 -1.60869,7.28121 -1.016,2.14489 -2.45489,3.83802 -4.31756,5.0798 -1.80623,1.24178 -3.9512,1.86293 -6.43475,1.86293 -2.48356,0 -4.65683,-0.62115 -6.5195,-1.86293 -1.86267,-1.24178 -3.33038,-2.93491 -4.40283,-5.0798 -1.016,-2.20133 -1.52394,-4.62832 -1.52394,-7.28121 0,-2.70933 0.50794,-5.10852 1.52394,-7.19697 1.07245,-2.14489 2.54016,-3.83802 4.40283,-5.0798 1.86267,-1.24178 4.03594,-1.86293 6.5195,-1.86293 z m 50.9695,0 c 2.48355,0 4.65631,0.62115 6.51898,1.86293 1.86267,1.24178 3.30208,2.93491 4.31808,5.0798 1.07245,2.14489 1.60869,4.57239 1.60869,7.28172 0,2.65289 -0.53624,5.05157 -1.60869,7.19646 -1.016,2.14489 -2.45541,3.83802 -4.31808,5.0798 -1.86267,1.24178 -4.03543,1.86293 -6.51898,1.86293 -2.42711,0 -4.57208,-0.62115 -6.43475,-1.86293 -1.86267,-1.24178 -3.33039,-2.93491 -4.40284,-5.0798 -1.016,-2.14489 -1.52393,-4.54357 -1.52393,-7.19646 0,-2.70933 0.50793,-5.13683 1.52393,-7.28172 1.07245,-2.14489 2.54017,-3.83802 4.40284,-5.0798 1.86267,-1.24178 4.00764,-1.86293 6.43475,-1.86293 z m 52.83191,0 c 1.74977,0 3.38682,0.39522 4.91082,1.18545 1.58045,0.73377 2.87833,1.75017 3.89433,3.0484 1.07245,1.29822 1.6653,2.76542 1.77819,4.40231 v 0.59273 H 341.1087 c 0.13672,-0.69413 0.29438,-1.35587 0.49764,-1.94717 0.62089,-1.80623 1.46745,-3.24564 2.5399,-4.31808 1.07245,-1.07245 2.34255,-1.8346 3.8101,-2.28616 1.46755,-0.45155 3.04797,-0.67748 4.74131,-0.67748 z m 151.21455,0 c 2.48356,0 4.65683,0.62115 6.5195,1.86293 1.86267,1.24178 3.30208,2.93491 4.31808,5.0798 1.07245,2.14489 1.60869,4.57239 1.60869,7.28172 0,2.65289 -0.53624,5.05157 -1.60869,7.19646 -1.016,2.14489 -2.45541,3.83802 -4.31808,5.0798 -1.86267,1.24178 -4.03594,1.86293 -6.5195,1.86293 -2.42711,0 -4.57157,-0.62115 -6.43424,-1.86293 -1.86267,-1.24178 -3.33038,-2.93491 -4.40283,-5.0798 -1.016,-2.14489 -1.52394,-4.54357 -1.52394,-7.19646 0,-2.70933 0.50794,-5.13683 1.52394,-7.28172 1.07245,-2.14489 2.54016,-3.83802 4.40283,-5.0798 1.86267,-1.24178 4.00713,-1.86293 6.43424,-1.86293 z m 74.84556,0 c 1.74978,0 3.38681,0.39522 4.91081,1.18545 1.58044,0.73377 2.87833,1.75017 3.89433,3.0484 1.07245,1.29822 1.6653,2.76542 1.77819,4.40231 v 0.59273 H 567.1688 c 0.13672,-0.69415 0.29438,-1.35585 0.49764,-1.94717 0.62089,-1.80623 1.46745,-3.24564 2.5399,-4.31808 1.07245,-1.07245 2.34255,-1.8346 3.8101,-2.28616 1.46756,-0.45155 3.04799,-0.67748 4.74132,-0.67748 z m 157.61415,0.78806 c 2.48356,0 4.65631,0.62116 6.51898,1.86294 1.86267,1.24178 3.30208,2.9349 4.31808,5.07979 1.07245,2.14489 1.60869,4.57188 1.60869,7.28121 0,2.6529 -0.53624,5.05209 -1.60869,7.19698 -1.016,2.1449 -2.45541,3.83801 -4.31808,5.07979 -1.86267,1.24177 -4.03542,1.86294 -6.51898,1.86294 -2.42711,0 -4.57208,-0.62117 -6.43475,-1.86294 -1.86267,-1.24179 -3.33039,-2.93489 -4.40283,-5.07979 -1.016,-2.14489 -1.52394,-4.54409 -1.52394,-7.19698 0,-2.70933 0.50794,-5.13632 1.52394,-7.28121 1.07244,-2.14489 2.54016,-3.83801 4.40283,-5.07979 1.86267,-1.24178 4.00764,-1.86294 6.43475,-1.86294 z" />
  </g>
</svg>
