<?xml version="1.0" encoding="UTF-8" standalone="no"?>
<!-- Created with Inkscape (http://www.inkscape.org/) -->

<svg
   width="774.76044mm"
   height="92.069313mm"
   viewBox="0 0 774.76044 92.069313"
   version="1.1"
   id="svg1"
   inkscape:export-filename="svg\AMdev B.svg"
   inkscape:export-xdpi="96"
   inkscape:export-ydpi="96"
   sodipodi:docname="Abdmdev OB.svg"
   inkscape:version="1.4.2 (f4327f4, 2025-05-13)"
   xmlns:inkscape="http://www.inkscape.org/namespaces/inkscape"
   xmlns:sodipodi="http://sodipodi.sourceforge.net/DTD/sodipodi-0.dtd"
   xmlns:xlink="http://www.w3.org/1999/xlink"
   xmlns="http://www.w3.org/2000/svg"
   xmlns:svg="http://www.w3.org/2000/svg">
  <sodipodi:namedview
     id="namedview1"
     pagecolor="#fbf7f6"
     bordercolor="#999999"
     borderopacity="1"
     inkscape:showpageshadow="2"
     inkscape:pageopacity="0"
     inkscape:pagecheckerboard="0"
     inkscape:deskcolor="#d1d1d1"
     inkscape:document-units="mm"
     showgrid="false"
     inkscape:zoom="0.27502034"
     inkscape:cx="1459.892"
     inkscape:cy="390.88018"
     inkscape:window-width="1920"
     inkscape:window-height="974"
     inkscape:window-x="-11"
     inkscape:window-y="-11"
     inkscape:window-maximized="1"
     inkscape:current-layer="layer1"
     showguides="false">
    <inkscape:page
       x="0"
       y="0"
       width="774.76044"
       height="92.069313"
       id="page1"
       margin="0"
       bleed="0" />
  </sodipodi:namedview>
  <defs
     id="defs1">
    <linearGradient
       id="linearGradient1"
       inkscape:collect="always">
      <stop
         style="stop-color:#003f91;stop-opacity:1;"
         offset="0"
         id="stop2" />
      <stop
         style="stop-color:#00a6fb;stop-opacity:1;"
         offset="1"
         id="stop1" />
    </linearGradient>
    <linearGradient
       id="swatch19"
       inkscape:swatch="solid">
      <stop
         style="stop-color:#ffffff;stop-opacity:1;"
         offset="0"
         id="stop19" />
    </linearGradient>
    <linearGradient
       inkscape:collect="always"
       xlink:href="#linearGradient1"
       id="linearGradient2"
       x1="900.19647"
       y1="832.93976"
       x2="125.43608"
       y2="832.93976"
       gradientUnits="userSpaceOnUse" />
  </defs>
  <g
     inkscape:label="Layer 1"
     inkscape:groupmode="layer"
     id="layer1"
     transform="translate(-125.43608,-788.22799)">
    <path
       id="path42"
       style="font-weight:bold;font-size:84.6667px;line-height:30.8;font-family:Quicksand;-inkscape-font-specification:'Quicksand Bold';display:inline;mix-blend-mode:darken;fill:url(#linearGradient2);fill-opacity:1;stroke:#fbf7f6;stroke-width:25.1354;stroke-linecap:butt;stroke-linejoin:round;stroke-dasharray:none;stroke-opacity:1;paint-order:stroke fill markers"
       d="M 231.79341 800.7957 C 230.32586 800.7957 229.11237 801.30364 228.15281 802.31964 C 227.19326 803.27919 226.71362 804.4932 226.71362 805.96076 L 226.71362 859.13116 C 226.71362 860.65516 227.19326 861.89696 228.15281 862.85651 C 229.11237 863.81606 230.32586 864.2957 231.79341 864.2957 C 233.26097 864.2957 234.47447 863.81606 235.43402 862.85651 C 236.39357 861.84051 236.87321 860.59871 236.87321 859.13116 L 236.87321 858.6454 C 237.46712 859.2306 238.14488 859.81616 238.90564 860.40136 C 240.42964 861.53025 242.17938 862.46121 244.15493 863.19499 C 246.13049 863.92876 248.24716 864.2957 250.50493 864.2957 C 254.34316 864.2957 257.78602 863.30812 260.83402 861.33257 C 263.93847 859.30057 266.39376 856.53496 268.19998 853.0354 C 270.06265 849.4794 270.99412 845.38708 270.99412 840.75863 C 270.99412 836.13018 270.06265 832.06616 268.19998 828.56661 C 266.39376 825.06705 263.91016 822.32923 260.74927 820.35368 C 257.64483 818.32167 254.11704 817.3058 250.16593 817.3058 C 248.19037 817.3058 246.29963 817.64443 244.49341 818.32176 C 242.74363 818.99909 241.19152 819.87396 239.83685 820.94641 C 238.62216 821.85742 237.63408 822.79139 236.87321 823.74779 L 236.87321 805.96076 C 236.87321 804.4932 236.39357 803.27919 235.43402 802.31964 C 234.47447 801.30364 233.26097 800.7957 231.79341 800.7957 z M 316.96806 800.7957 C 315.50051 800.7957 314.28701 801.30364 313.32745 802.31964 C 312.3679 803.27919 311.88827 804.4932 311.88827 805.96076 L 311.88827 822.60677 C 311.38581 822.13321 310.82127 821.66468 310.19483 821.20065 C 308.72728 820.07176 306.97754 819.14029 304.94554 818.40651 C 302.91354 817.67273 300.68417 817.3058 298.25706 817.3058 C 294.47528 817.3058 291.0319 818.32167 287.92745 820.35368 C 284.823 822.32923 282.33942 825.09536 280.47675 828.65136 C 278.67053 832.15092 277.76735 836.21493 277.76735 840.84338 C 277.76735 845.41538 278.67053 849.4794 280.47675 853.0354 C 282.33942 856.53496 284.85131 859.30057 288.0122 861.33257 C 291.17309 863.30812 294.70087 864.2957 298.59554 864.2957 C 300.74043 864.2957 302.71608 863.95707 304.52231 863.27974 C 306.38498 862.54597 307.9937 861.67109 309.34837 860.65509 C 310.34954 859.90422 311.19644 859.15339 311.8893 858.40252 C 311.9144 859.81872 312.39373 861.02141 313.32745 862.01005 C 314.28701 862.96961 315.50051 863.44924 316.96806 863.44924 C 318.43562 863.44924 319.64911 862.96961 320.60866 862.01005 C 321.56821 860.99405 322.04837 859.75225 322.04837 858.2847 L 322.04837 805.96076 C 322.04837 804.43676 321.56821 803.19496 320.60866 802.2354 C 319.64911 801.27585 318.43562 800.7957 316.96806 800.7957 z M 389.01947 800.7957 C 387.55191 800.7957 386.31012 801.30364 385.29412 802.31964 C 384.33457 803.27919 383.85493 804.4932 383.85493 805.96076 L 383.85493 858.2847 C 383.85493 859.75225 384.33457 860.99405 385.29412 862.01005 C 386.25367 862.96961 387.43938 863.44924 388.85049 863.44924 C 390.31805 863.44924 391.53155 862.96961 392.4911 862.01005 C 393.5071 860.99405 394.01504 859.75225 394.01504 858.2847 L 394.01504 805.96076 C 394.01504 804.4932 393.53488 803.27919 392.57533 802.31964 C 391.67222 801.30364 390.48702 800.7957 389.01947 800.7957 z M 543.11291 800.7957 C 541.64536 800.7957 540.40356 801.30364 539.38756 802.31964 C 538.428 803.27919 537.94837 804.4932 537.94837 805.96076 L 537.94837 858.2847 C 537.94837 859.75225 538.428 860.99405 539.38756 862.01005 C 540.34711 862.96961 541.53282 863.44924 542.94393 863.44924 C 544.41148 863.44924 545.62497 862.96961 546.58453 862.01005 C 547.60053 860.99405 548.10847 859.75225 548.10847 858.2847 L 548.10847 805.96076 C 548.10847 804.4932 547.62884 803.27919 546.66928 802.31964 C 545.76617 801.30364 544.58047 800.7957 543.11291 800.7957 z M 614.99535 800.7957 C 613.5278 800.7957 612.3143 801.30364 611.35474 802.31964 C 610.39519 803.27919 609.91504 804.4932 609.91504 805.96076 L 609.91504 858.2847 C 609.91504 859.75225 610.39519 860.99405 611.35474 862.01005 C 612.3143 862.96961 613.5278 863.44924 614.99535 863.44924 C 616.46291 863.44924 617.6764 862.96961 618.63595 862.01005 C 619.5955 860.99405 620.07514 859.75225 620.07514 858.2847 L 620.07514 849.37775 L 624.24129 845.54387 L 639.46362 861.67105 C 640.47962 862.79994 641.72142 863.36449 643.18897 863.36449 C 644.31786 863.36449 645.44696 862.91316 646.57585 862.01005 C 647.76118 861.0505 648.35403 859.83701 648.35403 858.36945 C 648.35403 856.95834 647.8178 855.68823 646.74535 854.55934 L 631.95038 838.44921 L 644.71343 826.70368 C 646.0681 825.51835 646.74535 824.24876 646.74535 822.89409 C 646.74535 821.87809 646.26519 820.8334 645.30564 819.76095 C 644.34609 818.6885 643.21751 818.15226 641.91928 818.15226 C 640.50817 818.15226 639.26637 818.6885 638.19393 819.76095 L 620.07514 837.2467 L 620.07514 805.96076 C 620.07514 804.4932 619.5955 803.27919 618.63595 802.31964 C 617.6764 801.30364 616.46291 800.7957 614.99535 800.7957 z M 753.47423 801.58376 C 752.00667 801.58376 750.79318 802.09171 749.83363 803.1077 C 748.87408 804.06726 748.39444 805.28075 748.39444 806.74831 L 748.39444 823.39484 C 747.89198 822.92128 747.32744 822.45275 746.701 821.98872 C 745.23345 820.85983 743.48371 819.92836 741.45171 819.19458 C 739.41971 818.4608 737.19034 818.09387 734.76323 818.09387 C 730.98145 818.09387 727.53808 819.10973 724.43363 821.14174 C 721.32918 823.11729 718.84559 825.88291 716.98292 829.43891 C 715.1767 832.93847 714.27352 837.00248 714.27352 841.63093 C 714.27352 846.20293 715.1767 850.26695 716.98292 853.82295 C 718.84559 857.32251 721.35749 860.08864 724.51838 862.12064 C 727.67927 864.09619 731.20704 865.08376 735.10171 865.08376 C 737.2466 865.08376 739.22226 864.74514 741.02848 864.06781 C 742.89115 863.33404 744.49987 862.45916 745.85454 861.44316 C 746.85571 860.69229 747.70261 859.94146 748.39547 859.19058 C 748.42057 860.60678 748.89991 861.80896 749.83363 862.7976 C 750.79318 863.75717 752.00667 864.2373 753.47423 864.2373 C 754.94178 864.2373 756.15579 863.75717 757.11535 862.7976 C 758.0749 861.78161 758.55454 860.53978 758.55454 859.07224 L 758.55454 806.74831 C 758.55454 805.22431 758.0749 803.98251 757.11535 803.02295 C 756.15579 802.06339 754.94178 801.58376 753.47423 801.58376 z M 193.97143 803.81877 C 193.04539 803.80027 192.16262 804.06252 191.32301 804.6058 C 190.4199 805.22669 189.74214 806.10156 189.29058 807.23045 L 170.269 852.91241 L 151.75489 841.84591 L 174.24137 828.82034 C 174.86226 828.42523 175.31358 827.97391 175.59581 827.46591 C 175.93448 826.90146 176.10431 826.33692 176.10431 825.77247 C 176.10431 824.58714 175.59585 823.45856 174.57985 822.38611 C 173.62029 821.25722 172.57612 820.69268 171.44723 820.69268 C 170.88278 820.69268 170.26214 820.83369 169.58481 821.11591 C 168.96392 821.34169 168.28667 821.68031 167.55289 822.13186 L 140.03622 837.96449 C 139.35889 838.3596 138.85095 838.92415 138.51228 839.65793 C 138.17361 840.33526 138.00379 841.06911 138.00379 841.85934 C 138.00379 842.59311 138.17361 843.32698 138.51228 844.06076 C 138.85095 844.73809 139.35889 845.30213 140.03622 845.75368 L 167.55289 861.9253 C 168.29339 862.34845 168.98426 862.74648 169.62563 863.12006 C 170.33047 863.62154 171.26912 863.87247 172.442 863.87247 C 173.40155 863.87247 174.27641 863.59046 175.06664 863.02601 C 175.91331 862.40512 176.53447 861.55856 176.92958 860.48611 L 193.8872 820.60431 L 210.96523 860.40136 C 211.41678 861.4738 212.03793 862.32037 212.82816 862.94126 C 213.67483 863.56215 214.60631 863.87247 215.62231 863.87247 C 216.80764 863.87247 217.88013 863.42114 218.83968 862.51803 C 219.85568 861.61492 220.36362 860.40143 220.36362 858.87742 C 220.36362 858.25653 220.22209 857.57877 219.93987 856.84499 L 199.1122 807.23045 C 198.71709 806.158 198.06815 805.33975 197.16504 804.7753 C 196.31837 804.15441 195.38689 803.84409 194.37089 803.84409 C 194.23684 803.82999 194.10373 803.82137 193.97143 803.81877 z M 352.69766 817.3058 C 348.97232 817.3058 345.44455 818.26559 342.11433 820.1847 C 338.7841 822.10381 336.07459 824.86941 333.98614 828.48186 C 331.95414 832.03786 330.93827 836.35559 330.93827 841.43559 C 330.93827 845.78182 331.86974 849.67653 333.73241 853.11964 C 335.65152 856.56275 338.36052 859.30057 341.86008 861.33257 C 345.41608 863.30812 349.59332 864.2957 354.3911 864.2957 C 357.21332 864.2957 359.95063 863.84437 362.60352 862.94126 C 365.25641 861.9817 367.31646 860.88091 368.78402 859.63914 C 370.36447 858.39736 371.15493 857.01455 371.15493 855.49055 C 371.15493 854.36166 370.7314 853.37409 369.88473 852.52742 C 369.0945 851.68075 368.07863 851.25722 366.83685 851.25722 C 365.93374 851.25722 364.97447 851.51145 363.95847 852.01945 C 363.33758 852.35812 362.63203 852.78114 361.84181 853.28914 C 361.10803 853.7407 360.11994 854.13592 358.87816 854.47459 C 357.63639 854.81326 355.97157 854.98257 353.88312 854.98257 C 351.62534 854.98257 349.48037 854.44633 347.44837 853.37388 C 345.47282 852.24499 343.83579 850.63627 342.53756 848.54782 C 341.81027 847.2916 341.29583 845.88049 340.9945 844.31449 L 368.95352 844.31449 C 370.30819 844.31449 371.49337 843.89095 372.50937 843.04428 C 373.52535 842.19761 374.06156 841.09735 374.11806 839.74268 C 374.11806 836.69468 373.52572 833.81584 372.34039 831.10651 C 371.2115 828.39717 369.65887 826.02628 367.68331 823.99428 C 365.70776 821.90584 363.42178 820.26933 360.82533 819.08399 C 358.28533 817.89866 355.57633 817.3058 352.69766 817.3058 z M 429.65989 817.3058 C 427.79722 817.3058 426.07528 817.61612 424.49483 818.23701 C 422.91438 818.80145 421.47497 819.56362 420.17675 820.52318 C 418.87852 821.48273 417.77825 822.52691 416.87514 823.6558 C 416.57043 824.01765 416.2879 824.37289 416.02816 824.72189 L 416.02816 823.31732 C 416.02816 821.84977 415.54852 820.63628 414.58897 819.67672 C 413.62941 818.66072 412.41592 818.15226 410.94837 818.15226 C 409.48081 818.15226 408.26731 818.66072 407.30776 819.67672 C 406.34821 820.63628 405.86806 821.84977 405.86806 823.31732 L 405.86806 858.2847 C 405.86806 859.75225 406.34821 860.99405 407.30776 862.01005 C 408.26731 862.96961 409.48081 863.44924 410.94837 863.44924 C 412.41592 863.44924 413.62941 862.96961 414.58897 862.01005 C 415.54852 860.99405 416.02816 859.75225 416.02816 858.2847 L 416.02816 836.61005 C 416.02816 834.74738 416.39509 833.08204 417.12887 831.61449 C 417.91909 830.09049 419.07649 828.87699 420.60049 827.97388 C 422.12449 827.07077 423.95863 826.61893 426.10352 826.61893 C 428.30485 826.61893 429.9985 827.07077 431.18383 827.97388 C 432.36916 828.87699 433.18742 830.09049 433.63897 831.61449 C 434.09053 833.08204 434.31645 834.74738 434.31645 836.61005 L 434.31645 858.2847 C 434.31645 859.75225 434.79609 860.99405 435.75564 862.01005 C 436.7152 862.96961 437.92869 863.44924 439.39624 863.44924 C 440.86379 863.44924 442.07729 862.96961 443.03685 862.01005 C 443.9964 860.99405 444.47655 859.75225 444.47655 858.2847 L 444.47655 836.61005 C 444.47655 834.74738 444.84297 833.08204 445.57675 831.61449 C 446.36697 830.09049 447.52437 828.87699 449.04837 827.97388 C 450.57238 827.07077 452.4065 826.61893 454.55139 826.61893 C 456.75272 826.61893 458.44637 827.07077 459.6317 827.97388 C 460.81703 828.87699 461.63529 830.09049 462.08685 831.61449 C 462.5384 833.08204 462.76433 834.74738 462.76433 836.61005 L 462.76433 858.2847 C 462.76433 859.75225 463.24397 860.99405 464.20352 862.01005 C 465.16308 862.96961 466.37657 863.44924 467.84412 863.44924 C 469.31168 863.44924 470.52569 862.96961 471.48524 862.01005 C 472.44479 860.99405 472.92443 859.75225 472.92443 858.2847 L 472.92443 836.61005 C 472.92443 833.05405 472.52919 829.8366 471.73897 826.95793 C 470.94875 824.02282 469.48103 821.68023 467.33614 819.93045 C 465.24769 818.18067 462.17176 817.3058 458.10776 817.3058 C 455.62421 817.3058 453.36653 817.84204 451.33453 818.91449 C 449.35897 819.93049 447.66533 821.20059 446.25422 822.72459 C 444.93868 824.09276 443.94202 825.38709 443.26423 826.60808 C 442.48164 824.23457 441.27724 822.23469 439.65049 820.60793 C 437.5056 818.40659 434.17545 817.3058 429.65989 817.3058 z M 502.30352 817.3058 C 498.52174 817.3058 495.07888 818.32167 491.97443 820.35368 C 488.86998 822.32923 486.38639 825.09536 484.52372 828.65136 C 482.71749 832.15092 481.81433 836.21493 481.81433 840.84338 C 481.81433 845.41538 482.71749 849.4794 484.52372 853.0354 C 486.38639 856.53496 488.89829 859.30057 492.05918 861.33257 C 495.22007 863.30812 498.74784 864.2957 502.64251 864.2957 C 504.7874 864.2957 506.76306 863.95707 508.56928 863.27974 C 510.43195 862.54597 512.04016 861.67109 513.39483 860.65509 C 514.39599 859.90422 515.24341 859.15339 515.93628 858.40252 C 515.96138 859.81872 516.44071 861.02141 517.37443 862.01005 C 518.33398 862.96961 519.54748 863.44924 521.01504 863.44924 C 522.48259 863.44924 523.69609 862.96961 524.65564 862.01005 C 525.6152 860.99405 526.09483 859.75225 526.09483 858.2847 L 526.09483 822.47034 C 526.09483 820.94634 525.6152 819.70454 524.65564 818.74499 C 523.69609 817.78543 522.48259 817.3058 521.01504 817.3058 C 519.54748 817.3058 518.33398 817.81374 517.37443 818.82974 C 516.41487 819.7893 515.93524 821.00279 515.93524 822.47034 L 515.93524 822.60677 C 515.43278 822.13321 514.86824 821.66468 514.24181 821.20065 C 512.77426 820.07176 511.02452 819.14029 508.99251 818.40651 C 506.96051 817.67273 504.73063 817.3058 502.30352 817.3058 z M 578.75776 817.3058 C 575.03243 817.3058 571.50466 818.26559 568.17443 820.1847 C 564.8442 822.10381 562.13468 824.86941 560.04624 828.48186 C 558.01424 832.03786 556.99837 836.35559 556.99837 841.43559 C 556.99837 845.78182 557.92984 849.67653 559.79251 853.11964 C 561.71162 856.56275 564.42114 859.30057 567.9207 861.33257 C 571.4767 863.30812 575.65342 864.2957 580.4512 864.2957 C 583.27343 864.2957 586.01073 863.84437 588.66362 862.94126 C 591.31651 861.9817 593.37709 860.88091 594.84464 859.63914 C 596.42509 858.39736 597.21504 857.01455 597.21504 855.49055 C 597.21504 854.36166 596.79202 853.37409 595.94535 852.52742 C 595.15512 851.68075 594.13872 851.25722 592.89695 851.25722 C 591.99384 851.25722 591.03458 851.51145 590.01858 852.01945 C 589.39769 852.35812 588.69214 852.78114 587.90191 853.28914 C 587.16813 853.7407 586.18004 854.13592 584.93827 854.47459 C 583.69649 854.81326 582.03167 854.98257 579.94322 854.98257 C 577.68544 854.98257 575.54047 854.44633 573.50847 853.37388 C 571.53292 852.24499 569.89589 850.63627 568.59766 848.54782 C 567.87038 847.2916 567.35645 845.88049 567.05512 844.31449 L 595.01362 844.31449 C 596.36829 844.31449 597.55399 843.89095 598.56999 843.04428 C 599.58596 842.19761 600.12218 841.09735 600.17868 839.74268 C 600.17868 836.69468 599.58582 833.81584 598.40049 831.10651 C 597.2716 828.39717 595.71949 826.02628 593.74393 823.99428 C 591.76838 821.90584 589.4824 820.26933 586.88595 819.08399 C 584.34595 817.89866 581.63643 817.3058 578.75776 817.3058 z M 853.84692 818.87677 C 853.53341 818.87677 853.21639 818.94186 852.89607 819.07107 C 851.36247 819.31287 850.19808 820.36984 849.40223 822.24245 L 837.81534 848.8925 L 826.11889 822.1577 C 825.66733 821.08525 824.98957 820.2953 824.08646 819.7873 C 823.18335 819.22285 822.19578 818.94033 821.12333 818.94033 C 819.59933 818.94033 818.38584 819.44827 817.48273 820.46427 C 816.57962 821.42383 816.12777 822.41191 816.12777 823.42791 C 816.12777 824.0488 816.18437 824.58505 816.29727 825.0366 C 816.4666 825.48816 816.60761 825.85507 816.7205 826.1373 L 832.46889 861.01993 C 832.97689 862.20526 833.71024 863.08013 834.66979 863.64458 C 835.68579 864.20905 836.72997 864.40663 837.80242 864.2373 C 839.77798 864.12441 841.21739 863.05193 842.1205 861.01993 L 856.14032 830.13138 L 873.87825 840.73435 L 851.39177 853.75991 C 850.77088 854.15502 850.29073 854.60635 849.95206 855.11435 C 849.66983 855.62235 849.52883 856.18688 849.52883 856.80778 C 849.52883 857.99311 850.00846 859.15 850.96802 860.27889 C 851.98402 861.35133 853.05651 861.88758 854.1854 861.88758 C 854.80629 861.88757 855.42744 861.74657 856.04833 861.46435 C 856.66922 861.18213 857.34647 860.8435 858.08025 860.44839 L 885.59692 844.61576 C 886.27425 844.22065 886.78218 843.68441 887.12085 843.00708 C 887.45952 842.2733 887.62883 841.51113 887.62883 840.72091 C 887.62883 839.93068 887.45952 839.19682 887.12085 838.51949 C 886.78218 837.78572 886.27425 837.22169 885.59692 836.82657 L 858.08025 820.65495 C 857.66594 820.41821 857.25949 820.19715 856.86069 819.99143 C 856.38639 819.6043 855.83916 819.33352 855.21944 819.17907 C 854.74752 818.97778 854.29008 818.87677 853.84692 818.87677 z M 790.26217 820.7397 C 786.53684 820.7397 783.00905 821.69897 779.67883 823.61808 C 776.3486 825.53719 773.6391 828.30331 771.55065 831.91576 C 769.51865 835.47176 768.50277 839.78949 768.50277 844.86949 C 768.50277 849.21572 769.43425 853.11042 771.29692 856.55354 C 773.21603 859.99665 775.92503 862.73446 779.42459 864.76647 C 782.98059 866.74202 787.15782 867.7296 791.9556 867.7296 C 794.77782 867.7296 797.51513 867.27827 800.16802 866.37516 C 802.82091 865.4156 804.88148 864.3148 806.34904 863.07303 C 807.92948 861.83125 808.71944 860.44845 808.71944 858.92445 C 808.71944 857.79556 808.29642 856.80748 807.44975 855.96081 C 806.65953 855.11414 805.64314 854.69112 804.40136 854.69112 C 803.49825 854.69112 802.53899 854.94483 801.52298 855.45283 C 800.90209 855.7915 800.19653 856.21503 799.40631 856.72303 C 798.67253 857.17459 797.68445 857.56982 796.44267 857.90849 C 795.2009 858.24716 793.53607 858.41647 791.44762 858.41647 C 789.18984 858.41647 787.04487 857.88023 785.01287 856.80778 C 783.03731 855.67889 781.40028 854.07017 780.10206 851.98172 C 779.37477 850.7255 778.86033 849.31439 778.559 847.74839 L 806.51802 847.74839 C 807.87269 847.74839 809.05839 847.32485 810.07439 846.47818 C 811.09037 845.63151 811.62658 844.53124 811.68308 843.17657 C 811.68308 840.12857 811.09023 837.24974 809.9049 834.54041 C 808.77601 831.83107 807.22388 829.46018 805.24833 827.42818 C 803.27278 825.33974 800.9868 823.70323 798.39035 822.51789 C 795.85035 821.33256 793.14084 820.7397 790.26217 820.7397 z M 248.89624 826.61893 C 251.37979 826.61893 253.52476 827.24008 255.33099 828.48186 C 257.19366 829.72364 258.63256 831.41677 259.64856 833.56166 C 260.721 835.65011 261.25725 838.0493 261.25725 840.75863 C 261.25725 843.41152 260.721 845.83851 259.64856 848.03984 C 258.63256 850.18473 257.19366 851.87786 255.33099 853.11964 C 253.52476 854.36142 251.37979 854.98257 248.89624 854.98257 C 246.41268 854.98257 244.23942 854.36142 242.37675 853.11964 C 240.51408 851.87786 239.04636 850.18473 237.97391 848.03984 C 236.95791 845.83851 236.44998 843.41152 236.44998 840.75863 C 236.44998 838.0493 236.95791 835.65011 237.97391 833.56166 C 239.04636 831.41677 240.51408 829.72364 242.37675 828.48186 C 244.23942 827.24008 246.41268 826.61893 248.89624 826.61893 z M 299.86574 826.61893 C 302.34929 826.61893 304.52206 827.24008 306.38473 828.48186 C 308.2474 829.72364 309.68681 831.41677 310.70281 833.56166 C 311.77526 835.70655 312.3115 838.13405 312.3115 840.84338 C 312.3115 843.49627 311.77526 845.89495 310.70281 848.03984 C 309.68681 850.18473 308.2474 851.87786 306.38473 853.11964 C 304.52206 854.36142 302.34929 854.98257 299.86574 854.98257 C 297.43863 854.98257 295.29366 854.36142 293.43099 853.11964 C 291.56832 851.87786 290.10061 850.18473 289.02816 848.03984 C 288.01216 845.89495 287.50422 843.49627 287.50422 840.84338 C 287.50422 838.13405 288.01216 835.70655 289.02816 833.56166 C 290.10061 831.41677 291.56832 829.72364 293.43099 828.48186 C 295.29366 827.24008 297.43863 826.61893 299.86574 826.61893 z M 352.69766 826.61893 C 354.44743 826.61893 356.08447 827.01416 357.60847 827.80439 C 359.18892 828.53816 360.48681 829.55455 361.50281 830.85278 C 362.57526 832.151 363.1681 833.6182 363.28099 835.25509 L 363.28099 835.84782 L 341.1087 835.84782 C 341.24542 835.15369 341.40309 834.49195 341.60635 833.90065 C 342.22724 832.09442 343.07379 830.65501 344.14624 829.58257 C 345.21869 828.51012 346.4888 827.74797 347.95635 827.29641 C 349.4239 826.84486 351.00432 826.61893 352.69766 826.61893 z M 503.9122 826.61893 C 506.39576 826.61893 508.56903 827.24008 510.4317 828.48186 C 512.29437 829.72364 513.73378 831.41677 514.74978 833.56166 C 515.82223 835.70655 516.35847 838.13405 516.35847 840.84338 C 516.35847 843.49627 515.82223 845.89495 514.74978 848.03984 C 513.73378 850.18473 512.29437 851.87786 510.4317 853.11964 C 508.56903 854.36142 506.39576 854.98257 503.9122 854.98257 C 501.48509 854.98257 499.34064 854.36142 497.47797 853.11964 C 495.6153 851.87786 494.14759 850.18473 493.07514 848.03984 C 492.05914 845.89495 491.5512 843.49627 491.5512 840.84338 C 491.5512 838.13405 492.05914 835.70655 493.07514 833.56166 C 494.14759 831.41677 495.6153 829.72364 497.47797 828.48186 C 499.34064 827.24008 501.48509 826.61893 503.9122 826.61893 z M 578.75776 826.61893 C 580.50754 826.61893 582.14458 827.01416 583.66858 827.80439 C 585.24902 828.53816 586.54691 829.55455 587.56291 830.85278 C 588.63536 832.151 589.22821 833.6182 589.3411 835.25509 L 589.3411 835.84782 L 567.16881 835.84782 C 567.30553 835.15367 567.46319 834.49197 567.66645 833.90065 C 568.28734 832.09442 569.1339 830.65501 570.20635 829.58257 C 571.2788 828.51012 572.5489 827.74797 574.01645 827.29641 C 575.48401 826.84486 577.06443 826.61893 578.75776 826.61893 z M 736.37192 827.40699 C 738.85548 827.40699 741.02823 828.02815 742.8909 829.26993 C 744.75357 830.51171 746.19298 832.20483 747.20898 834.34972 C 748.28143 836.49461 748.81767 838.9216 748.81767 841.63093 C 748.81767 844.28383 748.28143 846.68302 747.20898 848.82791 C 746.19298 850.97281 744.75357 852.66592 742.8909 853.9077 C 741.02823 855.14947 738.85548 855.77064 736.37192 855.77064 C 733.94481 855.77064 731.79984 855.14947 729.93717 853.9077 C 728.0745 852.66591 726.60677 850.97281 725.53433 848.82791 C 724.51833 846.68302 724.0104 844.28382 724.0104 841.63093 C 724.0104 838.9216 724.51833 836.49461 725.53433 834.34972 C 726.60677 832.20483 728.0745 830.51171 729.93717 829.26993 C 731.79984 828.02815 733.94481 827.40699 736.37192 827.40699 z M 790.26217 830.05283 C 792.01195 830.05283 793.64898 830.44805 795.17298 831.23828 C 796.75343 831.97205 798.05131 832.98793 799.06731 834.28616 C 800.13976 835.58438 800.73261 837.0521 800.8455 838.68899 L 800.8455 839.28172 L 778.67321 839.28172 C 778.80993 838.58759 778.96759 837.92585 779.17085 837.33455 C 779.79174 835.52832 780.6383 834.08891 781.71075 833.01647 C 782.78319 831.94402 784.05329 831.18187 785.52085 830.73031 C 786.9884 830.27876 788.56884 830.05283 790.26217 830.05283 z M 661.62557 856.33701 C 660.44024 856.33701 659.45216 856.70394 658.66193 857.43772 C 657.92816 858.22794 657.56122 859.18773 657.56122 860.31661 C 657.56122 861.44551 657.92816 862.37646 658.66193 863.11024 C 659.45216 863.90046 660.44024 864.2957 661.62557 864.2957 L 704.63587 864.2957 C 705.8212 864.2957 706.78098 863.92877 707.51476 863.19499 C 708.30498 862.46121 708.70022 861.53025 708.70022 860.40136 C 708.70022 859.21603 708.30498 858.22794 707.51476 857.43772 C 706.78098 856.70394 705.8212 856.33701 704.63587 856.33701 L 661.62557 856.33701 z " />
    <path
       style="font-weight:bold;font-size:84.6667px;line-height:30.8;font-family:Quicksand;-inkscape-font-specification:'Quicksand Bold';display:inline;mix-blend-mode:darken;fill:#003f91;fill-opacity:1;stroke:#fbf7f6;stroke-width:25.1354;stroke-linecap:butt;stroke-linejoin:round;stroke-dasharray:none;stroke-opacity:1;paint-order:stroke fill markers"
       d="m 194.13369,840.92862 c -1.58042,0.007 -2.9606,0.60534 -4.14083,1.79575 -1.12401,1.13372 -1.68287,2.51894 -1.67587,4.15582 0.007,1.58044 0.57755,2.96088 1.71152,4.14135 1.19018,1.1238 2.5754,1.68267 4.15582,1.67587 1.63688,-0.007 3.01732,-0.5778 4.14135,-1.71152 1.12381,-1.19018 1.68215,-2.57539 1.67535,-4.15582 -0.007,-1.63688 -0.57727,-3.01732 -1.71101,-4.14135 -1.13396,-1.18051 -2.51945,-1.76717 -4.15633,-1.7601 z"
       id="path1" />
  </g>
</svg>
