<?xml version="1.0" encoding="UTF-8" standalone="no"?>
<!-- Created with Inkscape (http://www.inkscape.org/) -->

<svg
   width="281.43863mm"
   height="134.83855mm"
   viewBox="0 0 281.43863 134.83855"
   version="1.1"
   id="svg1"
   inkscape:export-filename="svg\AMdev B.svg"
   inkscape:export-xdpi="96"
   inkscape:export-ydpi="96"
   sodipodi:docname="bitma.svg"
   inkscape:version="1.4.2 (f4327f4, 2025-05-13)"
   xmlns:inkscape="http://www.inkscape.org/namespaces/inkscape"
   xmlns:sodipodi="http://sodipodi.sourceforge.net/DTD/sodipodi-0.dtd"
   xmlns="http://www.w3.org/2000/svg"
   xmlns:svg="http://www.w3.org/2000/svg">
  <sodipodi:namedview
     id="namedview1"
     pagecolor="#ffffff"
     bordercolor="#999999"
     borderopacity="1"
     inkscape:showpageshadow="2"
     inkscape:pageopacity="0"
     inkscape:pagecheckerboard="0"
     inkscape:deskcolor="#d1d1d1"
     inkscape:document-units="mm"
     showgrid="false"
     inkscape:zoom="0.55004068"
     inkscape:cx="1926.2212"
     inkscape:cy="2693.4371"
     inkscape:window-width="1920"
     inkscape:window-height="974"
     inkscape:window-x="-11"
     inkscape:window-y="-11"
     inkscape:window-maximized="1"
     inkscape:current-layer="layer1"
     showguides="false">
    <inkscape:page
       x="0"
       y="0"
       width="281.43863"
       height="134.83855"
       id="page1"
       margin="0"
       bleed="0" />
  </sodipodi:namedview>
  <defs
     id="defs1">
    <linearGradient
       id="swatch19"
       inkscape:swatch="solid">
      <stop
         style="stop-color:#ffffff;stop-opacity:1;"
         offset="0"
         id="stop19" />
    </linearGradient>
  </defs>
  <g
     inkscape:label="Layer 1"
     inkscape:groupmode="layer"
     id="layer1"
     transform="translate(-371.25156,-646.12151)">
    <path
       id="text29"
       style="font-weight:bold;font-size:84.6667px;line-height:30.8;font-family:Comfortaa;-inkscape-font-specification:'Comfortaa Bold';display:inline;mix-blend-mode:darken;fill:#1b262c;fill-opacity:1;stroke:#ffffff;stroke-width:25;stroke-linecap:butt;stroke-linejoin:round;stroke-dasharray:none;stroke-opacity:1;paint-order:stroke fill markers"
       d="m 439.87134,694.49043 c -1.58043,0.007 -2.96059,0.60534 -4.14083,1.79575 -1.12403,1.13373 -1.68238,2.51945 -1.67535,4.15634 0.007,1.58042 0.57703,2.96087 1.71101,4.14135 1.19017,1.12378 2.57538,1.68213 4.15581,1.67535 1.63688,-0.007 3.01732,-0.57729 4.14135,-1.71101 1.12379,-1.19017 1.68214,-2.5759 1.67535,-4.15634 -0.007,-1.63687 -0.57727,-3.01732 -1.711,-4.14135 -1.13397,-1.18047 -2.51947,-1.76711 -4.15634,-1.76009 z m 104.65305,26.97974 c -3.72535,0 -7.25311,0.95979 -10.58334,2.8789 -3.33023,1.91911 -6.03924,4.68471 -8.12767,8.29717 -2.03202,3.55599 -3.04838,7.87424 -3.04839,12.95424 10e-6,4.34623 0.93148,8.24094 2.79414,11.68405 1.91912,3.44311 4.62863,6.18041 8.12819,8.21241 3.55601,1.97555 7.73272,2.96313 12.5305,2.96313 2.82224,0 5.56006,-0.45132 8.21294,-1.35444 2.65289,-0.95955 4.71296,-2.06034 6.1805,-3.30212 1.58046,-1.24178 2.3704,-2.62459 2.3704,-4.14859 0,-1.12889 -0.42302,-2.11645 -1.26969,-2.96312 -0.79023,-0.84666 -1.8061,-1.27022 -3.04788,-1.27021 -0.90311,0 -1.86289,0.25422 -2.87889,0.76223 -0.62089,0.33867 -1.32644,0.76169 -2.11667,1.26969 -0.73378,0.45156 -1.72136,0.84677 -2.96313,1.18545 -1.24179,0.33866 -2.9071,0.50798 -4.99556,0.50798 -2.25777,0 -4.40273,-0.53622 -6.43475,-1.60868 -1.97554,-1.12888 -3.61259,-2.73762 -4.91081,-4.82607 -0.72728,-1.25622 -1.24121,-2.66732 -1.54254,-4.23333 h 27.95902 c 1.35466,0 2.53984,-0.42302 3.55585,-1.26969 1.01597,-0.84667 1.55219,-1.94744 1.60869,-3.30212 -10e-6,-3.048 -0.59285,-5.92684 -1.77819,-8.63617 -1.12888,-2.70933 -2.68099,-5.0797 -4.65656,-7.11171 -1.97555,-2.08844 -4.26154,-3.72548 -6.85798,-4.91081 -2.54001,-1.18535 -5.24951,-1.77819 -8.12818,-1.77819 z m 0,9.31365 c 1.74977,10e-6 3.3868,0.39471 4.91081,1.18494 1.58045,0.73377 2.87885,1.75016 3.89485,3.04839 1.07244,1.29822 1.66479,2.76543 1.77767,4.40232 v 0.59272 h -22.17177 c 0.13672,-0.69414 0.29386,-1.35586 0.49712,-1.94716 0.62088,-1.80623 1.46746,-3.24565 2.5399,-4.31809 1.07245,-1.07245 2.34254,-1.8346 3.8101,-2.28616 1.46756,-0.45156 3.048,-0.67695 4.74132,-0.67696 z" />
    <path
       id="path9"
       style="font-weight:bold;font-size:84.6667px;line-height:30.8;font-family:Quicksand;-inkscape-font-specification:'Quicksand Bold';display:inline;mix-blend-mode:darken;fill:#3282b8;fill-opacity:1;stroke:#ffffff;stroke-width:25;stroke-linecap:butt;stroke-linejoin:round;stroke-dasharray:none;stroke-opacity:1;paint-order:stroke fill markers"
       d="m 522.53432,707.8118 c -1.25989,0 -2.30975,0.36641 -3.14968,1.10019 -0.77994,0.79022 -1.16996,1.75 -1.16996,2.87889 0,1.12889 0.39002,2.06037 1.16996,2.79415 0.83993,0.79022 1.88979,1.18494 3.14968,1.18494 h 40.45024 l 14.57844,31.64871 0.0181,0.0398 6.81767,15.10192 c 0.508,1.18533 1.24134,2.06071 2.2009,2.62516 1.016,0.56447 2.06018,0.76155 3.13262,0.59222 1.97556,-0.11289 3.41498,-1.18538 4.31809,-3.21738 l 14.09113,-31.04513 18.2981,10.93732 -22.487,13.02556 c -0.62089,0.39511 -1.10051,0.84644 -1.43918,1.35444 -0.28222,0.508 -0.42323,1.07254 -0.42323,1.69343 0,1.18533 0.47963,2.34222 1.43918,3.47111 1.016,1.07244 2.08849,1.60869 3.21738,1.60869 0.62089,0 1.24153,-0.14101 1.86242,-0.42323 0.62089,-0.28222 1.29813,-0.62085 2.03191,-1.01596 L 638.15828,746.334 c 0.67733,-0.39511 1.18527,-0.93136 1.52394,-1.60869 0.33867,-0.73378 0.50798,-1.49594 0.50798,-2.28616 0,-0.79023 -0.16931,-1.52409 -0.50798,-2.20142 -0.33867,-0.73377 -0.84661,-1.29781 -1.52394,-1.69292 l -27.51719,-16.17162 c -0.79022,-0.45155 -1.55186,-0.84679 -2.28564,-1.18546 -0.67156,-0.39174 -1.3156,-0.58887 -1.93167,-0.59221 -0.19545,-0.0196 -0.39693,-0.0294 -0.60461,-0.0294 -2.032,-0.11289 -3.52751,0.95959 -4.48707,3.21737 l -11.58689,26.65005 -3.17345,-7.2533 -0.0171,-0.0388 -14.10198,-32.49724 c -0.20473,-0.45387 -0.34326,-0.78649 -0.60152,-1.11673 -0.15516,-0.21686 -0.33565,-0.42223 -0.54105,-0.61546 -0.77993,-0.73378 -1.79987,-1.10019 -3.05976,-1.10019 z" />
    <path
       id="path6"
       style="font-weight:bold;font-size:84.6667px;line-height:30.8;font-family:Quicksand;-inkscape-font-specification:'Quicksand Bold';mix-blend-mode:darken;fill:#144272;fill-opacity:1;stroke:#ffffff;stroke-width:25;stroke-linecap:butt;stroke-linejoin:round;stroke-dasharray:none;stroke-opacity:1;paint-order:stroke fill markers"
       d="m 439.74402,658.62199 c -0.92604,-0.0185 -1.8088,0.24375 -2.64841,0.78703 -0.90311,0.62089 -1.58088,1.49576 -2.03244,2.62465 l -19.06447,45.78583 -18.49654,-11.05617 22.48648,-13.02556 c 0.62089,-0.39511 1.07274,-0.84696 1.35496,-1.35496 0.33867,-0.56445 0.50797,-1.12847 0.50797,-1.69292 0,-1.18533 -0.50793,-2.31442 -1.52393,-3.38687 -0.95955,-1.12889 -2.00426,-1.69344 -3.13315,-1.69344 -0.56445,0 -1.18508,0.14101 -1.86241,0.42323 -0.62089,0.22578 -1.29815,0.56441 -2.03192,1.01596 l -27.51667,15.83263 c -0.67733,0.39511 -1.18527,0.95965 -1.52394,1.69343 -0.33867,0.67733 -0.50798,1.41119 -0.50798,2.20142 0,0.73377 0.16931,1.46764 0.50798,2.20142 0.33867,0.67733 0.84661,1.24188 1.52394,1.69343 l 27.51667,16.17111 c 0.79022,0.45156 1.52408,0.87509 2.20141,1.2702 0.60401,0.27878 1.16955,0.44266 1.69706,0.49196 0.31654,0.0475 0.65511,0.0713 1.01596,0.0713 0.95955,0 1.83441,-0.28253 2.62464,-0.84698 0.84667,-0.62089 1.46783,-1.46745 1.86294,-2.5399 l 16.95762,-39.88128 17.07854,39.79654 c 0.14496,0.34426 0.30694,0.66551 0.4868,0.96324 0.21218,0.44764 0.48865,0.86309 0.8294,1.24644 0.90311,0.95956 2.06052,1.43919 3.47163,1.43919 1.46755,0 2.65274,-0.47963 3.55585,-1.43919 0.90311,-1.016 1.35496,-2.2578 1.35496,-3.72535 v -34.87281 l 13.96969,22.08806 c 0.508,0.62089 1.12915,1.15713 1.86293,1.60868 0.79022,0.45158 1.55187,0.64923 2.28565,0.59273 0.79022,0.0564 1.55239,-0.14117 2.28617,-0.59273 0.79022,-0.45155 1.43915,-0.98779 1.94716,-1.60868 l 13.97021,-21.29741 v 27.64792 0.003 l -0.062,16.72973 c -0.46225,-0.42401 -0.97429,-0.84457 -1.53634,-1.2609 -1.46756,-1.12889 -3.21729,-2.05985 -5.24929,-2.79363 -2.032,-0.73378 -4.26189,-1.10071 -6.689,-1.10071 -3.78178,0 -7.22464,1.01587 -10.32909,3.04788 -3.10445,1.97555 -5.58803,4.74116 -7.4507,8.29716 -1.80622,3.49956 -2.7094,7.56358 -2.7094,12.19203 0,4.572 0.90318,8.63602 2.7094,12.19202 1.86267,3.49956 4.37456,6.26516 7.53545,8.29716 3.16089,1.97555 6.68867,2.96365 10.58334,2.96365 2.14489,0 4.12054,-0.33863 5.92677,-1.01596 1.86267,-0.73377 3.47087,-1.60865 4.82554,-2.62465 1.00117,-0.75087 1.84858,-1.5017 2.54145,-2.25257 0.0251,1.4162 0.50444,2.61838 1.43815,3.60701 0.95956,0.95956 2.17306,1.43919 3.64061,1.43919 1.46756,0 2.57423,-0.0508 3.9088,-0.97462 1.65392,-1.39713 1.49965,-2.79369 1.49965,-4.26124 v -52.25262 -42.81961 c 0,-1.524 -0.53623,-2.76579 -1.60868,-3.72535 -1.07245,-0.95955 -2.28594,-1.43971 -3.64061,-1.43971 -1.69333,0 -3.07613,0.76217 -4.14858,2.28617 l -18.99006,28.37036 -18.43298,-28.37036 c -0.45155,-0.67733 -1.12881,-1.21358 -2.03192,-1.60869 -0.84667,-0.45155 -1.66493,-0.67748 -2.45515,-0.67748 -1.46756,0 -2.73766,0.50846 -3.8101,1.52446 -1.016,1.016 -1.52394,2.22949 -1.52394,3.6406 v 25.51214 l -11.8153,-28.14505 c -0.39511,-1.07245 -1.04405,-1.8907 -1.94716,-2.45515 -0.84667,-0.62089 -1.77815,-0.93173 -2.79415,-0.93173 -0.13405,-0.0141 -0.26717,-0.0222 -0.39946,-0.0248 z m 51.08681,69.52289 c 2.48355,0 4.65683,0.62115 6.5195,1.86293 1.86267,1.24178 3.30208,2.93491 4.31808,5.0798 1.07244,2.14489 1.60869,4.57188 1.60869,7.28121 0,2.65289 -0.53625,5.05208 -1.60869,7.19697 -1.016,2.14489 -2.45541,3.83803 -4.31808,5.0798 -1.86267,1.24178 -4.03595,1.86241 -6.5195,1.86241 -2.42711,0 -4.57157,-0.62063 -6.43424,-1.86241 -1.86267,-1.24178 -3.33038,-2.93491 -4.40283,-5.0798 -1.016,-2.14489 -1.52394,-4.54408 -1.52394,-7.19697 0,-2.70933 0.50794,-5.13632 1.52394,-7.28121 1.07245,-2.14489 2.54016,-3.83802 4.40283,-5.0798 1.86267,-1.24178 4.00713,-1.86293 6.43424,-1.86293 z"
       sodipodi:nodetypes="sccccccscsccccscccccsccccccscscccccccccccssccsccscsccscscsssccccscsccccsssscscssscscss" />
  </g>
</svg>
