<?xml version="1.0" encoding="UTF-8" standalone="no"?>
<!-- Created with Inkscape (http://www.inkscape.org/) -->

<svg
   version="1.1"
   id="svg1"
   width="2200"
   height="2700"
   viewBox="0 0 2200 2700"
   sodipodi:docname="Codejeem icon LB.svg"
   xml:space="preserve"
   inkscape:export-filename="Codejeem icon AOLB.svg"
   inkscape:export-xdpi="96"
   inkscape:export-ydpi="96"
   inkscape:version="1.4.2 (f4327f4, 2025-05-13)"
   xmlns:inkscape="http://www.inkscape.org/namespaces/inkscape"
   xmlns:sodipodi="http://sodipodi.sourceforge.net/DTD/sodipodi-0.dtd"
   xmlns:xlink="http://www.w3.org/1999/xlink"
   xmlns="http://www.w3.org/2000/svg"
   xmlns:svg="http://www.w3.org/2000/svg"><defs
     id="defs1"><linearGradient
       id="linearGradient9"
       inkscape:collect="always"><stop
         style="stop-color:#ff7700;stop-opacity:1;"
         offset="0"
         id="stop8" /><stop
         style="stop-color:#e53900;stop-opacity:1;"
         offset="1"
         id="stop9" /></linearGradient><linearGradient
       id="linearGradient100"
       inkscape:collect="always"><stop
         style="stop-color:#0088ff;stop-opacity:1;"
         offset="0"
         id="stop100" /><stop
         style="stop-color:#0057cc;stop-opacity:1;"
         offset="1"
         id="stop101" /></linearGradient><linearGradient
       id="linearGradient98"
       inkscape:collect="always"><stop
         style="stop-color:#ff7700;stop-opacity:1;"
         offset="0"
         id="stop98" /><stop
         style="stop-color:#e53900;stop-opacity:1;"
         offset="1"
         id="stop99" /></linearGradient><linearGradient
       inkscape:collect="always"
       xlink:href="#linearGradient98"
       id="linearGradient99"
       x1="1617.6172"
       y1="1693.0154"
       x2="1599.2228"
       y2="2443.3098"
       gradientUnits="userSpaceOnUse" /><linearGradient
       inkscape:collect="always"
       xlink:href="#linearGradient100"
       id="linearGradient101"
       x1="1631.6656"
       y1="474.04706"
       x2="1631.0575"
       y2="2792.2798"
       gradientUnits="userSpaceOnUse" /><linearGradient
       inkscape:collect="always"
       xlink:href="#linearGradient9"
       id="linearGradient5"
       gradientUnits="userSpaceOnUse"
       x1="1617.6173"
       y1="1693.0154"
       x2="1599.2228"
       y2="2443.3098"
       gradientTransform="matrix(1.0660176,0,0,1.0650293,-108.48061,-163.61381)" /><linearGradient
       inkscape:collect="always"
       xlink:href="#linearGradient100"
       id="linearGradient7"
       gradientUnits="userSpaceOnUse"
       x1="1631.6656"
       y1="474.04706"
       x2="1631.0575"
       y2="2792.2798"
       gradientTransform="matrix(1.052701,0,0,1.0352712,-75.986417,-58.767062)" /><linearGradient
       inkscape:collect="always"
       xlink:href="#linearGradient98"
       id="linearGradient2"
       x1="1632.6703"
       y1="1839.4271"
       x2="1632.6703"
       y2="2297.2495"
       gradientUnits="userSpaceOnUse" /><linearGradient
       inkscape:collect="always"
       xlink:href="#linearGradient100"
       id="linearGradient4"
       x1="1631.9731"
       y1="680.47803"
       x2="1631.9731"
       y2="2583.5552"
       gradientUnits="userSpaceOnUse" /></defs><sodipodi:namedview
     id="namedview1"
     pagecolor="#000000"
     bordercolor="#999999"
     borderopacity="1"
     inkscape:showpageshadow="2"
     inkscape:pageopacity="0"
     inkscape:pagecheckerboard="0"
     inkscape:deskcolor="#d1d1d1"
     showgrid="false"
     inkscape:export-bgcolor="#fbf7f600"
     inkscape:zoom="0.18472111"
     inkscape:cx="1523.919"
     inkscape:cy="1800.0108"
     inkscape:window-width="1920"
     inkscape:window-height="974"
     inkscape:window-x="-11"
     inkscape:window-y="-11"
     inkscape:window-maximized="1"
     inkscape:current-layer="g1"
     showguides="false"><inkscape:page
       x="0"
       y="0"
       width="2200"
       height="2700"
       id="page1"
       margin="0"
       bleed="0" /></sodipodi:namedview><g
     inkscape:groupmode="layer"
     inkscape:label="Image"
     id="g1"
     transform="translate(-532,-282)"><rect
       style="fill:#fbf7f6;stroke:none;stroke-width:15;stroke-linecap:round;stroke-linejoin:round;stroke-dasharray:none;stroke-opacity:1;paint-order:stroke fill markers"
       id="rect6"
       width="2200"
       height="2700"
       x="532"
       y="282"
       ry="154.13388" /><path
       style="display:inline;mix-blend-mode:normal;fill:url(#linearGradient7);fill-opacity:1;stroke:url(#linearGradient4);stroke-width:15;stroke-linecap:round;stroke-linejoin:round;stroke-dasharray:none;stroke-dashoffset:0;stroke-opacity:1;paint-order:stroke fill markers"
       d="M 972.65882,2550.1966 V 713.62552 h 205.27678 c 38.7318,0 75.1142,-6.29276 106.3228,-30.55488 69.0771,-53.70168 67.85,-156.92047 6.3162,-214.76372 -41.1608,-38.69224 -94.6002,-36.27516 -147.3782,-36.27516 H 869.49418 c -47.3859,0 -93.8005,-0.74357 -131.58762,32.27232 -10.13276,8.8534 -19.26635,18.75997 -26.82357,29.84398 -28.12692,41.25287 -22.65337,91.56059 -22.65337,138.72635 v 308.51084 1352.06405 353.0275 c 0,53.4545 -1.31653,104.2899 40.00266,144.938 7.16195,7.0457 14.52128,13.549 23.15932,18.8274 41.05068,25.0839 87.30225,21.5482 133.69308,21.5482 h 254.75372 c 53.1289,0 105.4205,2.6529 148.4307,-33.572 58.6089,-49.3627 65.1758,-143.4844 13.5025,-200.3994 -28.5043,-31.3955 -66.2424,-45.7729 -108.2454,-47.5818 -73.3743,-3.1596 -147.6137,-0.04 -221.06738,-0.04 M 2292.746,713.62552 V 2550.1966 h -148.4309 c -24.735,0 -50.0688,-1.5691 -74.7416,0.092 -38.0742,2.5643 -73.5606,13.7484 -100.8807,41.4109 -57.0964,57.8121 -52.5664,158.7488 11.4011,209.5905 42.3634,33.6709 94.0645,30.4999 145.2727,30.4999 h 253.701 c 45.2563,0 91.33,3.7558 131.5875,-20.5098 9.7219,-5.8598 18.2738,-12.9906 26.3177,-20.9011 42.0078,-41.3123 38.9499,-92.95 38.9499,-147.0085 V 2295.5199 944.49102 628.73325 c 0,-59.53566 3.9851,-116.54055 -45.2662,-160.29132 -39.0445,-34.68418 -82.8526,-36.41017 -132.6404,-36.41017 H 2127.472 c -57.9699,0 -113.2257,-2.64074 -157.8898,40.41622 -56.8911,54.84444 -53.8232,155.26998 6.3009,206.71411 31.8942,27.28958 70.5768,34.46343 111.5863,34.46343 z"
       id="path6"
       sodipodi:nodetypes="ccssssssssccsscssssscccscsssssssccsssssssc" /><path
       style="display:none;mix-blend-mode:normal;fill:url(#linearGradient101);fill-opacity:1;stroke:#ffffff;stroke-width:377.953;stroke-linecap:round;stroke-linejoin:round;stroke-dasharray:none;stroke-dashoffset:0;stroke-opacity:1;paint-order:stroke fill markers"
       d="M 996.1472,2520.0775 V 746.07752 h 195 c 36.7928,0 71.3538,-6.07837 101,-29.51392 65.6188,-51.87207 64.4532,-151.57421 6,-207.44677 -39.1002,-37.37403 -89.8643,-35.03931 -140,-35.03931 h -260 c -45.0136,0 -89.1046,-0.71826 -125,31.17285 -9.6255,8.55176 -18.3018,18.12085 -25.4807,28.82715 -26.7188,39.84741 -21.5193,88.44116 -21.5193,134 v 298 1305.99998 341 c 0,51.6333 -1.2506,100.7368 38,140 6.8034,6.8057 13.7943,13.0874 22,18.186 38.9955,24.2293 82.9316,20.814 127,20.814 h 242 c 50.4691,0 100.1429,2.5625 141,-32.4282 55.6747,-47.6809 61.9128,-138.596 12.8264,-193.5718 -27.0773,-30.3259 -62.9261,-44.2134 -102.8264,-45.9607 -69.701,-3.052 -140.2238,-0.039 -210,-0.039 m 1254,-1774.00028 V 2520.0775 h -141 c -23.4968,0 -47.5623,-1.5156 -71,0.089 -36.168,2.477 -69.8778,13.28 -95.8302,40 -54.238,55.8425 -49.9348,153.3403 10.8302,202.4499 40.2426,32.5237 89.3555,29.4607 138,29.4607 h 241 c 42.9907,0 86.7578,3.6279 125,-19.811 9.2351,-5.6602 17.3589,-12.5479 25,-20.189 39.9048,-39.9048 37,-89.7832 37,-142 v -335.9996 -1304.99998 -305 c 0,-57.50732 3.7856,-112.57007 -43,-154.83032 -37.0898,-33.50244 -78.7048,-35.16968 -126,-35.16968 h -257 c -55.0677,0 -107.5573,-2.55078 -149.9854,39.03931 -54.043,52.97583 -51.1287,149.97998 5.9854,199.67138 30.2975,26.35987 67.0436,33.28931 106,33.28931 z"
       id="path1" /><path
       style="display:inline;opacity:1;mix-blend-mode:normal;fill:url(#linearGradient99);fill-opacity:1;stroke:url(#linearGradient2);stroke-width:15;stroke-linecap:round;stroke-linejoin:round;stroke-dasharray:none;stroke-opacity:1;paint-order:stroke fill markers"
       d="m 1564.2228,2114.4794 c -1.6314,12.1048 -7.3679,23.8637 -12.1505,35 -23.7725,55.3544 -76.4361,97.2163 -84.5602,159 -10.325,78.5219 53.2217,142.3047 131.7107,134.8303 37.2802,-3.5502 69.0833,-23.432 93.8302,-50.8303 80.0686,-88.6471 127.5144,-197.1233 148.5942,-313.9999 9.9336,-55.0771 15.7421,-112.1943 10.4058,-168 -3.7371,-39.0826 -13.6465,-78.7352 -33.2577,-113 -49.8084,-87.0255 -150.7182,-119.5262 -245.5725,-98.5757 -64.9804,14.3523 -120.823,59.2592 -145.5502,121.5757 -39.2414,98.8948 -7.5875,227.6781 91.5502,277.2468 13.8917,6.9459 29.4962,14.4634 45,16.7531 z"
       id="path1-1" /><path
       style="display:none;opacity:1;mix-blend-mode:normal;fill:url(#linearGradient5);fill-opacity:1;stroke:#ffffff;stroke-width:377.953;stroke-linecap:round;stroke-linejoin:round;stroke-dasharray:none;stroke-opacity:1;paint-order:stroke fill markers"
       d="m 1559.0087,2088.3689 c -1.7391,12.892 -7.8543,25.4155 -12.9527,37.276 -25.3419,58.9541 -81.4821,103.5382 -90.1427,169.3397 -11.0066,83.6281 56.7354,151.5587 140.406,143.5982 39.7414,-3.7811 73.644,-24.9557 100.0247,-54.1357 85.3545,-94.4118 135.9325,-209.9422 158.404,-334.4192 10.5894,-58.6587 16.7813,-119.4902 11.0928,-178.9249 -3.9839,-41.6241 -14.5475,-83.8552 -35.4532,-120.3483 -53.0967,-92.6848 -160.6684,-127.299 -261.7848,-104.9861 -69.2702,15.2857 -128.7994,63.1128 -155.159,129.4817 -41.832,105.3259 -8.0884,242.4839 97.5942,295.276 14.8087,7.3977 31.4434,15.404 47.9707,17.8426 z"
       id="path4" /><rect
       style="display:none;fill:#000000;fill-opacity:0.987805;stroke-width:0;stroke-linecap:round;stroke-linejoin:round;paint-order:stroke markers fill"
       id="rect1"
       width="509.23489"
       height="191.92648"
       x="2321.3826"
       y="1196.2357"
       rx="93.854683"
       ry="95.963242" /><rect
       style="display:none;fill:#000000;fill-opacity:0.987805;stroke-width:0;stroke-linecap:round;stroke-linejoin:round;paint-order:stroke markers fill"
       id="rect2"
       width="509.23489"
       height="191.92648"
       x="2442.2419"
       y="2237.2925"
       rx="93.854683"
       ry="95.963242" /><rect
       style="display:none;fill:#000000;fill-opacity:0.987805;stroke-width:0;stroke-linecap:round;stroke-linejoin:round;paint-order:stroke markers fill"
       id="rect4"
       width="509.23489"
       height="191.92648"
       x="2442.2419"
       y="1543.2546"
       rx="93.854683"
       ry="95.963242" /><rect
       style="display:none;fill:#000000;fill-opacity:0.987805;stroke-width:0;stroke-linecap:round;stroke-linejoin:round;paint-order:stroke markers fill"
       id="rect5"
       width="509.23489"
       height="191.92648"
       x="2321.3826"
       y="1890.2736"
       rx="93.854683"
       ry="95.963242" /><rect
       style="display:none;fill:#000000;fill-opacity:0.987805;stroke-width:0;stroke-linecap:round;stroke-linejoin:round;paint-order:stroke markers fill"
       id="rect14"
       width="509.23489"
       height="191.92648"
       x="2442.2419"
       y="849.2168"
       rx="93.854683"
       ry="95.963242" /><path
       id="rect3"
       style="display:none;fill:#000000;fill-opacity:0.987805;stroke-width:0;stroke-linecap:round;stroke-linejoin:round;paint-order:stroke markers fill"
       d="m 728.33397,787.12983 c 51.9955,0 93.8535,42.79925 93.8535,95.96289 0,53.16363 -41.858,95.96291 -93.8535,95.96291 h -321.5273 c -51.9955,0 -93.8536,-42.79928 -93.8536,-95.96291 0,-53.16364 41.8581,-95.96289 93.8536,-95.96289 z m 120.8594,347.01947 c 51.9955,0 93.8535,42.7993 93.8535,95.9629 0,53.1637 -41.858,95.9629 -93.8535,95.9629 h -321.5274 c -51.9955,0 -93.8535,-42.7992 -93.8535,-95.9629 0,-53.1636 41.858,-95.9629 93.8535,-95.9629 z m -120.8594,347.0176 c 51.9955,0 93.8535,42.8012 93.8535,95.9649 0,53.1636 -41.858,95.9628 -93.8535,95.9628 h -321.5273 c -51.9955,0 -93.8536,-42.7992 -93.8536,-95.9628 0,-53.1637 41.8581,-95.9649 93.8536,-95.9649 z m 120.8594,347.0195 c 51.9955,0 93.8535,42.7993 93.8535,95.9629 0,53.1637 -41.858,95.9629 -93.8535,95.9629 h -321.5274 c -51.9955,0 -93.8535,-42.7992 -93.8535,-95.9629 0,-53.1636 41.858,-95.9629 93.8535,-95.9629 z m -120.8594,347.0196 c 51.9955,0 93.8535,42.7992 93.8535,95.9629 0,53.1636 -41.858,95.9629 -93.8535,95.9629 h -321.5273 c -51.9955,0 -93.8536,-42.7993 -93.8536,-95.9629 0,-53.1637 41.8581,-95.9629 93.8536,-95.9629 z" /><path
       id="path9"
       style="display:none;fill:#000000;fill-opacity:0.987805;stroke-width:0;stroke-linecap:round;stroke-linejoin:round;paint-order:stroke markers fill"
       d="m 2535.6661,787.12983 c -51.9955,0 -93.8535,42.79925 -93.8535,95.96289 0,53.16363 41.858,95.96291 93.8535,95.96291 h 321.5273 c 51.9955,0 93.8536,-42.79928 93.8536,-95.96291 0,-53.16364 -41.8581,-95.96289 -93.8536,-95.96289 z m -120.8594,347.01947 c -51.9955,0 -93.8535,42.7993 -93.8535,95.9629 0,53.1637 41.858,95.9629 93.8535,95.9629 h 321.5274 c 51.9955,0 93.8535,-42.7992 93.8535,-95.9629 0,-53.1636 -41.858,-95.9629 -93.8535,-95.9629 z m 120.8594,347.0176 c -51.9955,0 -93.8535,42.8012 -93.8535,95.9649 0,53.1636 41.858,95.9628 93.8535,95.9628 h 321.5273 c 51.9955,0 93.8536,-42.7992 93.8536,-95.9628 0,-53.1637 -41.8581,-95.9649 -93.8536,-95.9649 z m -120.8594,347.0195 c -51.9955,0 -93.8535,42.7993 -93.8535,95.9629 0,53.1637 41.858,95.9629 93.8535,95.9629 h 321.5274 c 51.9955,0 93.8535,-42.7992 93.8535,-95.9629 0,-53.1636 -41.858,-95.9629 -93.8535,-95.9629 z m 120.8594,347.0196 c -51.9955,0 -93.8535,42.7992 -93.8535,95.9629 0,53.1636 41.858,95.9629 93.8535,95.9629 h 321.5273 c 51.9955,0 93.8536,-42.7993 93.8536,-95.9629 0,-53.1637 -41.8581,-95.9629 -93.8536,-95.9629 z" /></g></svg>
